<svg preserveAspectRatio="none" overflow="visible" style="display: block;" width="28" height="28" viewBox="0 0 28 28" fill="none" xmlns="http://www.w3.org/2000/svg">
<g id="emoji/dal">
<path id="Vector" d="M10.7505 6.41432C9.94752 5.94869 8.99249 5.82108 8.09546 6.05956C7.19842 6.29804 6.43285 6.88308 5.96714 7.68598C5.18781 9.02998 5.55725 9.13187 4.33692 11.2358C3.11036 13.3505 2.85136 13.0573 2.06503 14.4138C1.5994 15.2167 1.4718 16.1717 1.71028 17.0688C1.94876 17.9658 2.53379 18.7314 3.3367 19.1971C8.44903 22.1635 16.107 9.52154 10.7505 6.41432ZM22.9818 20.188C22.8751 19.7409 22.6813 19.3193 22.4116 18.9471C22.1419 18.5749 21.8016 18.2595 21.41 18.0188C21.0184 17.7782 20.5832 17.617 20.1293 17.5445C19.6755 17.4721 19.2118 17.4897 18.7647 17.5964C17.2535 17.9573 17.4347 18.2956 15.0679 18.8603C12.6903 19.4281 12.7245 19.0384 11.1993 19.4024C10.7522 19.5092 10.3305 19.7029 9.95834 19.9726C9.58615 20.2423 9.27073 20.5827 9.03008 20.9742C8.78943 21.3658 8.62827 21.801 8.5558 22.2549C8.48332 22.7088 8.50096 23.1725 8.6077 23.6195C9.98047 29.3696 24.4199 26.2111 22.9818 20.188ZM22.9056 15.1526C23.3173 14.9482 23.6846 14.6647 23.9868 14.3183C24.2889 13.9719 24.5198 13.5694 24.6663 13.1337C24.8129 12.6981 24.8722 12.2378 24.8408 11.7792C24.8095 11.3207 24.6881 10.8728 24.4837 10.4611C23.7923 9.06965 23.5037 9.32165 22.4218 7.14309C21.3345 4.95365 21.7218 4.8992 21.0249 3.49532C20.612 2.6639 19.8859 2.03051 19.0061 1.73442C18.1263 1.43834 17.1649 1.5038 16.3334 1.91643C11.0383 4.54609 17.3593 17.9068 22.9056 15.1526Z" fill="#CA694D"/>
</g>
</svg>
